<?xml version="1.0" standalone="no"?>
<!DOCTYPE svg PUBLIC "-//W3C//DTD SVG 20010904//EN"
 "http://www.w3.org/TR/2001/REC-SVG-20010904/DTD/svg10.dtd">
<svg version="1.0" xmlns="http://www.w3.org/2000/svg"
 width="32.000000pt" height="32.000000pt" viewBox="0 0 32.000000 32.000000"
 preserveAspectRatio="xMidYMid meet">

<g transform="translate(0.000000,32.000000) scale(0.100000,-0.100000)"
fill="#000000" stroke="none">
<path d="M116 300 c-66 -20 -115 -103 -100 -167 9 -37 40 -81 67 -94 20 -9 20
-9 5 4 -24 19 -23 33 7 62 18 19 35 25 65 25 30 0 47 -6 65 -25 41 -40 32 -55
-50 -84 l-30 -11 35 6 c40 6 78 30 94 59 6 11 7 15 2 9 -7 -8 -19 -1 -42 23
-28 29 -32 39 -23 55 14 27 4 65 -22 79 -50 26 -104 -24 -81 -75 9 -21 7 -29
-22 -60 -33 -34 -34 -34 -44 -13 -31 65 -24 115 23 161 77 78 200 41 232 -70
11 -37 12 -38 6 -4 -14 88 -104 146 -187 120z m78 -76 c9 -8 16 -23 16 -31 0
-21 -29 -53 -48 -53 -22 0 -52 30 -52 51 0 23 26 49 50 49 10 0 26 -7 34 -16z"/>
<path d="M291 124 c0 -11 3 -14 6 -6 3 7 2 16 -1 19 -3 4 -6 -2 -5 -13z"/>
<path d="M118 23 c7 -3 16 -2 19 1 4 3 -2 6 -13 5 -11 0 -14 -3 -6 -6z"/>
</g>
</svg>
